<svg data-v-423bf9ae="" xmlns="http://www.w3.org/2000/svg" viewBox="0 0 841 90" class="iconLeft"><!----><!----><!----><g data-v-423bf9ae="" id="d237c87f-d5e1-4559-a769-d854b468ea86" fill="#ffffff" transform="matrix(6.122449456230433,0,0,6.122449456230433,100.32652631058096,8.755103101932889)"><path d="M10.89 8.05L10.89 8.05L10.89 8.05Q10.89 8.59 10.75 9.00L10.75 9.00L10.75 9.00Q10.60 9.40 10.35 9.69L10.35 9.69L10.35 9.69Q10.09 9.98 9.73 10.16L9.73 10.16L9.73 10.16Q9.37 10.34 8.94 10.45L8.94 10.45L8.94 10.45Q8.51 10.55 8.02 10.60L8.02 10.60L8.02 10.60Q7.53 10.64 7 10.64L7 10.64L1.58 10.64L1.58 1.24L6.88 1.24L6.88 1.24Q7.28 1.24 7.68 1.28L7.68 1.28L7.68 1.28Q8.09 1.31 8.46 1.40L8.46 1.40L8.46 1.40Q8.83 1.50 9.15 1.66L9.15 1.66L9.15 1.66Q9.47 1.83 9.70 2.09L9.70 2.09L9.70 2.09Q9.94 2.36 10.07 2.73L10.07 2.73L10.07 2.73Q10.21 3.11 10.21 3.62L10.21 3.62L10.21 3.62Q10.21 4.08 10.09 4.42L10.09 4.42L10.09 4.42Q9.98 4.75 9.75 4.99L9.75 4.99L9.75 4.99Q9.52 5.23 9.17 5.38L9.17 5.38L9.17 5.38Q8.81 5.54 8.33 5.63L8.33 5.63L8.33 5.63Q9.02 5.67 9.50 5.86L9.50 5.86L9.50 5.86Q9.99 6.04 10.29 6.35L10.29 6.35L10.29 6.35Q10.60 6.66 10.75 7.09L10.75 7.09L10.75 7.09Q10.89 7.51 10.89 8.05ZM9.41 3.64L9.41 3.64L9.41 3.64Q9.41 3.44 9.38 3.24L9.38 3.24L9.38 3.24Q9.35 3.04 9.26 2.86L9.26 2.86L9.26 2.86Q9.16 2.68 8.98 2.52L8.98 2.52L8.98 2.52Q8.80 2.37 8.48 2.25L8.48 2.25L8.48 2.25Q8.17 2.14 7.71 2.07L7.71 2.07L7.71 2.07Q7.25 2.01 6.60 2.01L6.60 2.01L2.43 2.01L2.43 5.29L6.60 5.29L6.60 5.29Q7.52 5.29 8.07 5.16L8.07 5.16L8.07 5.16Q8.63 5.02 8.92 4.80L8.92 4.80L8.92 4.80Q9.22 4.57 9.31 4.27L9.31 4.27L9.31 4.27Q9.41 3.97 9.41 3.64ZM9.99 8.03L9.99 8.03L9.99 8.03Q9.99 7.50 9.81 7.12L9.81 7.12L9.81 7.12Q9.63 6.75 9.24 6.51L9.24 6.51L9.24 6.51Q8.86 6.27 8.26 6.16L8.26 6.16L8.26 6.16Q7.66 6.04 6.83 6.04L6.83 6.04L2.43 6.04L2.43 9.86L6.95 9.86L6.95 9.86Q7.80 9.86 8.38 9.77L8.38 9.77L8.38 9.77Q8.97 9.67 9.33 9.44L9.33 9.44L9.33 9.44Q9.69 9.22 9.84 8.87L9.84 8.87L9.84 8.87Q9.99 8.52 9.99 8.03ZM22.76 9.15L22.76 10.14L22.76 10.14Q22.19 10.32 21.70 10.45L21.70 10.45L21.70 10.45Q21.21 10.58 20.73 10.65L20.73 10.65L20.73 10.65Q20.25 10.73 19.75 10.77L19.75 10.77L19.75 10.77Q19.26 10.81 18.66 10.81L18.66 10.81L18.66 10.81Q17.28 10.81 16.17 10.47L16.17 10.47L16.17 10.47Q15.05 10.14 14.27 9.51L14.27 9.51L14.27 9.51Q13.49 8.89 13.06 8.00L13.06 8.00L13.06 8.00Q12.64 7.11 12.64 6.00L12.64 6.00L12.64 6.00Q12.64 4.93 13.05 4.03L13.05 4.03L13.05 4.03Q13.45 3.14 14.18 2.50L14.18 2.50L14.18 2.50Q14.92 1.85 15.93 1.50L15.93 1.50L15.93 1.50Q16.95 1.14 18.18 1.14L18.18 1.14L18.18 1.14Q19.46 1.14 20.46 1.48L20.46 1.48L20.46 1.48Q21.46 1.83 22.14 2.46L22.14 2.46L22.14 2.46Q22.83 3.10 23.18 4.00L23.18 4.00L23.18 4.00Q23.54 4.91 23.54 6.04L23.54 6.04L23.54 6.25L13.52 6.25L13.52 6.25Q13.60 7.13 13.96 7.83L13.96 7.83L13.96 7.83Q14.32 8.54 14.99 9.03L14.99 9.03L14.99 9.03Q15.65 9.52 16.63 9.79L16.63 9.79L16.63 9.79Q17.60 10.05 18.90 10.05L18.90 10.05L18.90 10.05Q19.46 10.05 20.02 9.97L20.02 9.97L20.02 9.97Q20.59 9.90 21.11 9.77L21.11 9.77L21.11 9.77Q21.63 9.65 22.06 9.48L22.06 9.48L22.06 9.48Q22.49 9.32 22.76 9.15L22.76 9.15ZM13.52 5.51L22.70 5.51L22.70 5.51Q22.65 4.79 22.37 4.14L22.37 4.14L22.37 4.14Q22.10 3.49 21.56 2.99L21.56 2.99L21.56 2.99Q21.01 2.49 20.18 2.19L20.18 2.19L20.18 2.19Q19.34 1.90 18.17 1.90L18.17 1.90L18.17 1.90Q17.07 1.90 16.24 2.19L16.24 2.19L16.24 2.19Q15.42 2.49 14.84 2.98L14.84 2.98L14.84 2.98Q14.27 3.48 13.94 4.13L13.94 4.13L13.94 4.13Q13.61 4.79 13.52 5.51L13.52 5.51ZM35.63 1.24L35.63 7.21L35.63 7.21Q35.63 8.13 35.20 8.80L35.20 8.80L35.20 8.80Q34.77 9.47 34.01 9.92L34.01 9.92L34.01 9.92Q33.26 10.36 32.23 10.58L32.23 10.58L32.23 10.58Q31.20 10.79 30.00 10.79L30.00 10.79L30.00 10.79Q28.70 10.79 27.62 10.63L27.62 10.63L27.62 10.63Q26.53 10.46 25.72 10.16L25.72 10.16L25.72 9.17L25.72 9.17Q26.15 9.35 26.62 9.51L26.62 9.51L26.62 9.51Q27.08 9.67 27.61 9.79L27.61 9.79L27.61 9.79Q28.14 9.91 28.73 9.97L28.73 9.97L28.73 9.97Q29.33 10.04 30.03 10.04L30.03 10.04L30.03 10.04Q31.01 10.04 31.88 9.85L31.88 9.85L31.88 9.85Q32.74 9.66 33.38 9.30L33.38 9.30L33.38 9.30Q34.02 8.94 34.39 8.42L34.39 8.42L34.39 8.42Q34.76 7.89 34.76 7.21L34.76 7.21L34.76 5.43L34.76 5.43Q34.43 5.87 33.96 6.28L33.96 6.28L33.96 6.28Q33.48 6.69 32.90 7.00L32.90 7.00L32.90 7.00Q32.31 7.31 31.63 7.50L31.63 7.50L31.63 7.50Q30.95 7.68 30.19 7.68L30.19 7.68L30.19 7.68Q29.33 7.68 28.66 7.52L28.66 7.52L28.66 7.52Q27.99 7.36 27.50 7.08L27.50 7.08L27.50 7.08Q27.00 6.80 26.66 6.42L26.66 6.42L26.66 6.42Q26.32 6.03 26.11 5.57L26.11 5.57L26.11 5.57Q25.90 5.12 25.81 4.62L25.81 4.62L25.81 4.62Q25.72 4.12 25.72 3.61L25.72 3.61L25.72 1.24L26.58 1.24L26.58 3.42L26.58 3.42Q26.58 4.21 26.77 4.85L26.77 4.85L26.77 4.85Q26.96 5.50 27.39 5.95L27.39 5.95L27.39 5.95Q27.82 6.41 28.52 6.66L28.52 6.66L28.52 6.66Q29.22 6.91 30.26 6.91L30.26 6.91L30.26 6.91Q31.06 6.91 31.73 6.70L31.73 6.70L31.73 6.70Q32.40 6.48 32.95 6.11L32.95 6.11L32.95 6.11Q33.50 5.75 33.95 5.27L33.95 5.27L33.95 5.27Q34.41 4.79 34.76 4.27L34.76 4.27L34.76 1.24L35.63 1.24ZM50.07 5.95L50.07 5.95L50.07 5.95Q50.07 7.21 49.61 8.13L49.61 8.13L49.61 8.13Q49.15 9.05 48.35 9.65L48.35 9.65L48.35 9.65Q47.55 10.25 46.46 10.53L46.46 10.53L46.46 10.53Q45.38 10.82 44.12 10.82L44.12 10.82L44.12 10.82Q42.85 10.82 41.76 10.53L41.76 10.53L41.76 10.53Q40.67 10.25 39.86 9.65L39.86 9.65L39.86 9.65Q39.05 9.05 38.60 8.13L38.60 8.13L38.60 8.13Q38.14 7.21 38.14 5.95L38.14 5.95L38.14 5.95Q38.14 5.11 38.35 4.42L38.35 4.42L38.35 4.42Q38.56 3.73 38.94 3.19L38.94 3.19L38.94 3.19Q39.33 2.65 39.87 2.25L39.87 2.25L39.87 2.25Q40.41 1.85 41.08 1.59L41.08 1.59L41.08 1.59Q41.75 1.33 42.51 1.20L42.51 1.20L42.51 1.20Q43.28 1.07 44.12 1.07L44.12 1.07L44.12 1.07Q45.38 1.07 46.46 1.36L46.46 1.36L46.46 1.36Q47.55 1.65 48.35 2.25L48.35 2.25L48.35 2.25Q49.15 2.84 49.61 3.76L49.61 3.76L49.61 3.76Q50.07 4.68 50.07 5.95ZM49.18 5.95L49.18 5.95L49.18 5.95Q49.18 4.95 48.86 4.18L48.86 4.18L48.86 4.18Q48.54 3.42 47.90 2.90L47.90 2.90L47.90 2.90Q47.26 2.37 46.32 2.10L46.32 2.10L46.32 2.10Q45.37 1.83 44.12 1.83L44.12 1.83L44.12 1.83Q42.87 1.83 41.91 2.11L41.91 2.11L41.91 2.11Q40.96 2.38 40.32 2.90L40.32 2.90L40.32 2.90Q39.68 3.42 39.35 4.19L39.35 4.19L39.35 4.19Q39.02 4.96 39.02 5.95L39.02 5.95L39.02 5.95Q39.02 6.95 39.35 7.71L39.35 7.71L39.35 7.71Q39.68 8.48 40.32 9.00L40.32 9.00L40.32 9.00Q40.96 9.52 41.91 9.79L41.91 9.79L41.91 9.79Q42.87 10.06 44.12 10.06L44.12 10.06L44.12 10.06Q45.37 10.06 46.32 9.79L46.32 9.79L46.32 9.79Q47.26 9.52 47.90 9.00L47.90 9.00L47.90 9.00Q48.54 8.48 48.86 7.71L48.86 7.71L48.86 7.71Q49.18 6.95 49.18 5.95ZM62.51 10.64L61.66 10.64L61.66 4.44L61.66 4.44Q61.66 3.66 61.45 3.15L61.45 3.15L61.45 3.15Q61.24 2.65 60.86 2.36L60.86 2.36L60.86 2.36Q60.47 2.06 59.92 1.95L59.92 1.95L59.92 1.95Q59.36 1.83 58.67 1.83L58.67 1.83L58.67 1.83Q57.87 1.83 57.10 2.03L57.10 2.03L57.10 2.03Q56.33 2.22 55.65 2.52L55.65 2.52L55.65 2.52Q54.97 2.82 54.39 3.18L54.39 3.18L54.39 3.18Q53.82 3.54 53.42 3.88L53.42 3.88L53.42 10.64L52.57 10.64L52.57 1.24L53.42 1.24L53.42 2.89L53.42 2.89Q53.90 2.59 54.48 2.26L54.48 2.26L54.48 2.26Q55.06 1.93 55.72 1.65L55.72 1.65L55.72 1.65Q56.39 1.37 57.15 1.20L57.15 1.20L57.15 1.20Q57.91 1.02 58.75 1.02L58.75 1.02L58.75 1.02Q59.70 1.02 60.41 1.25L60.41 1.25L60.41 1.25Q61.11 1.48 61.58 1.90L61.58 1.90L61.58 1.90Q62.05 2.32 62.28 2.92L62.28 2.92L62.28 2.92Q62.51 3.51 62.51 4.25L62.51 4.25L62.51 10.64ZM75.89 5.93L75.89 5.93L75.89 5.93Q75.89 6.84 75.70 7.54L75.70 7.54L75.70 7.54Q75.51 8.24 75.17 8.76L75.17 8.76L75.17 8.76Q74.83 9.28 74.34 9.64L74.34 9.64L74.34 9.64Q73.85 10.00 73.25 10.22L73.25 10.22L73.25 10.22Q72.65 10.44 71.95 10.54L71.95 10.54L71.95 10.54Q71.25 10.64 70.48 10.64L70.48 10.64L65.63 10.64L65.63 1.24L70.46 1.24L70.46 1.24Q71.62 1.24 72.61 1.47L72.61 1.47L72.61 1.47Q73.60 1.70 74.33 2.24L74.33 2.24L74.33 2.24Q75.06 2.78 75.47 3.68L75.47 3.68L75.47 3.68Q75.89 4.59 75.89 5.93ZM75.00 5.93L75.00 5.93L75.00 5.93Q75.00 5.17 74.85 4.58L74.85 4.58L74.85 4.58Q74.70 3.99 74.42 3.56L74.42 3.56L74.42 3.56Q74.14 3.12 73.74 2.83L73.74 2.83L73.74 2.83Q73.34 2.54 72.83 2.35L72.83 2.35L72.83 2.35Q72.32 2.17 71.73 2.10L71.73 2.10L71.73 2.10Q71.13 2.02 70.46 2.02L70.46 2.02L66.49 2.02L66.49 9.85L70.46 9.85L70.46 9.85Q71.47 9.85 72.30 9.67L72.30 9.67L72.30 9.67Q73.14 9.49 73.74 9.04L73.74 9.04L73.74 9.04Q74.33 8.59 74.67 7.84L74.67 7.84L74.67 7.84Q75.00 7.08 75.00 5.93ZM79.23 1.24L79.23 7.39L79.23 7.39Q79.23 8.03 79.33 8.48L79.33 8.48L79.33 8.48Q79.43 8.94 79.76 9.24L79.76 9.24L79.76 9.24Q80.09 9.53 80.71 9.67L80.71 9.67L80.71 9.67Q81.33 9.81 82.35 9.81L82.35 9.81L86.60 9.81L86.60 10.64L82.18 10.64L82.18 10.64Q81.05 10.64 80.32 10.46L80.32 10.46L80.32 10.46Q79.58 10.27 79.15 9.90L79.15 9.90L79.15 9.90Q78.72 9.52 78.54 8.93L78.54 8.93L78.54 8.93Q78.37 8.35 78.37 7.55L78.37 7.55L78.37 1.24L79.23 1.24ZM97.67 10.64L96.82 10.64L96.82 9.60L96.82 9.60Q96.33 9.86 95.70 10.09L95.70 10.09L95.70 10.09Q95.07 10.32 94.38 10.48L94.38 10.48L94.38 10.48Q93.69 10.64 92.96 10.73L92.96 10.73L92.96 10.73Q92.22 10.82 91.52 10.82L91.52 10.82L91.52 10.82Q90.60 10.82 89.88 10.66L89.88 10.66L89.88 10.66Q89.15 10.49 88.64 10.17L88.64 10.17L88.64 10.17Q88.14 9.84 87.86 9.36L87.86 9.36L87.86 9.36Q87.59 8.88 87.59 8.24L87.59 8.24L87.59 8.24Q87.59 7.62 87.91 7.13L87.91 7.13L87.91 7.13Q88.22 6.65 88.81 6.29L88.81 6.29L88.81 6.29Q89.40 5.93 90.23 5.68L90.23 5.68L90.23 5.68Q91.06 5.43 92.09 5.26L92.09 5.26L92.09 5.26Q93.11 5.09 94.31 4.97L94.31 4.97L94.31 4.97Q95.50 4.86 96.82 4.79L96.82 4.79L96.82 4.07L96.82 4.07Q96.82 3.63 96.65 3.29L96.65 3.29L96.65 3.29Q96.49 2.96 96.20 2.71L96.20 2.71L96.20 2.71Q95.90 2.46 95.50 2.29L95.50 2.29L95.50 2.29Q95.11 2.13 94.65 2.02L94.65 2.02L94.65 2.02Q94.19 1.92 93.68 1.88L93.68 1.88L93.68 1.88Q93.17 1.83 92.65 1.83L92.65 1.83L92.65 1.83Q91.96 1.83 91.40 1.90L91.40 1.90L91.40 1.90Q90.83 1.97 90.34 2.09L90.34 2.09L90.34 2.09Q89.84 2.21 89.39 2.37L89.39 2.37L89.39 2.37Q88.94 2.52 88.48 2.70L88.48 2.70L88.48 1.70L88.48 1.70Q89.43 1.45 90.51 1.26L90.51 1.26L90.51 1.26Q91.59 1.07 92.80 1.07L92.80 1.07L92.80 1.07Q93.82 1.07 94.71 1.25L94.71 1.25L94.71 1.25Q95.60 1.42 96.26 1.80L96.26 1.80L96.26 1.80Q96.91 2.19 97.29 2.79L97.29 2.79L97.29 2.79Q97.67 3.40 97.67 4.27L97.67 4.27L97.67 10.64ZM96.82 8.70L96.82 5.54L96.82 5.54Q94.58 5.67 93.00 5.89L93.00 5.89L93.00 5.89Q91.42 6.12 90.41 6.45L90.41 6.45L90.41 6.45Q89.41 6.77 88.94 7.21L88.94 7.21L88.94 7.21Q88.47 7.65 88.47 8.20L88.47 8.20L88.47 8.20Q88.47 8.65 88.70 9.00L88.70 9.00L88.70 9.00Q88.93 9.35 89.36 9.59L89.36 9.59L89.36 9.59Q89.79 9.82 90.41 9.94L90.41 9.94L90.41 9.94Q91.02 10.06 91.79 10.06L91.79 10.06L91.79 10.06Q92.24 10.06 92.72 10.01L92.72 10.01L92.72 10.01Q93.20 9.96 93.68 9.87L93.68 9.87L93.68 9.87Q94.16 9.78 94.62 9.65L94.62 9.65L94.62 9.65Q95.09 9.52 95.50 9.37L95.50 9.37L95.50 9.37Q95.91 9.22 96.25 9.05L96.25 9.05L96.25 9.05Q96.58 8.88 96.82 8.70L96.82 8.70ZM110.06 8.05L110.06 8.05L110.06 8.05Q110.06 8.59 109.92 9.00L109.92 9.00L109.92 9.00Q109.77 9.40 109.52 9.69L109.52 9.69L109.52 9.69Q109.26 9.98 108.90 10.16L108.90 10.16L108.90 10.16Q108.54 10.34 108.11 10.45L108.11 10.45L108.11 10.45Q107.68 10.55 107.19 10.60L107.19 10.60L107.19 10.60Q106.70 10.64 106.17 10.64L106.17 10.64L100.75 10.64L100.75 1.24L106.05 1.24L106.05 1.24Q106.45 1.24 106.85 1.28L106.85 1.28L106.85 1.28Q107.26 1.31 107.63 1.40L107.63 1.40L107.63 1.40Q108.00 1.50 108.32 1.66L108.32 1.66L108.32 1.66Q108.64 1.83 108.87 2.09L108.87 2.09L108.87 2.09Q109.11 2.36 109.24 2.73L109.24 2.73L109.24 2.73Q109.38 3.11 109.38 3.62L109.38 3.62L109.38 3.62Q109.38 4.08 109.26 4.42L109.26 4.42L109.26 4.42Q109.15 4.75 108.92 4.99L108.92 4.99L108.92 4.99Q108.69 5.23 108.34 5.38L108.34 5.38L108.34 5.38Q107.98 5.54 107.50 5.63L107.50 5.63L107.50 5.63Q108.19 5.67 108.67 5.86L108.67 5.86L108.67 5.86Q109.16 6.04 109.46 6.35L109.46 6.35L109.46 6.35Q109.77 6.66 109.92 7.09L109.92 7.09L109.92 7.09Q110.06 7.51 110.06 8.05ZM108.58 3.64L108.58 3.64L108.58 3.64Q108.58 3.44 108.55 3.24L108.55 3.24L108.55 3.24Q108.52 3.04 108.42 2.86L108.42 2.86L108.42 2.86Q108.33 2.68 108.15 2.52L108.15 2.52L108.15 2.52Q107.97 2.37 107.65 2.25L107.65 2.25L107.65 2.25Q107.34 2.14 106.88 2.07L106.88 2.07L106.88 2.07Q106.42 2.01 105.77 2.01L105.77 2.01L101.60 2.01L101.60 5.29L105.77 5.29L105.77 5.29Q106.69 5.29 107.24 5.16L107.24 5.16L107.24 5.16Q107.80 5.02 108.09 4.80L108.09 4.80L108.09 4.80Q108.39 4.57 108.48 4.27L108.48 4.27L108.48 4.27Q108.58 3.97 108.58 3.64ZM109.16 8.03L109.16 8.03L109.16 8.03Q109.16 7.50 108.98 7.12L108.98 7.12L108.98 7.12Q108.79 6.75 108.41 6.51L108.41 6.51L108.41 6.51Q108.03 6.27 107.43 6.16L107.43 6.16L107.43 6.16Q106.83 6.04 106.00 6.04L106.00 6.04L101.60 6.04L101.60 9.86L106.11 9.86L106.11 9.86Q106.97 9.86 107.55 9.77L107.55 9.77L107.55 9.77Q108.14 9.67 108.50 9.44L108.50 9.44L108.50 9.44Q108.86 9.22 109.01 8.87L109.01 8.87L109.01 8.87Q109.16 8.52 109.16 8.03ZM120.05 1.65L120.05 2.63L120.05 2.63Q119.79 2.50 119.44 2.35L119.44 2.35L119.44 2.35Q119.09 2.21 118.64 2.09L118.64 2.09L118.64 2.09Q118.19 1.98 117.63 1.90L117.63 1.90L117.63 1.90Q117.07 1.82 116.39 1.82L116.39 1.82L116.39 1.82Q115.56 1.82 114.92 1.91L114.92 1.91L114.92 1.91Q114.27 2.01 113.82 2.21L113.82 2.21L113.82 2.21Q113.37 2.41 113.14 2.72L113.14 2.72L113.14 2.72Q112.90 3.03 112.90 3.45L112.90 3.45L112.90 3.45Q112.90 3.81 113.12 4.07L113.12 4.07L113.12 4.07Q113.35 4.34 113.73 4.55L113.73 4.55L113.73 4.55Q114.11 4.75 114.61 4.92L114.61 4.92L114.61 4.92Q115.12 5.09 115.69 5.23L115.69 5.23L115.69 5.23Q116.27 5.38 116.87 5.53L116.87 5.53L116.87 5.53Q117.48 5.68 118.05 5.85L118.05 5.85L118.05 5.85Q118.62 6.03 119.13 6.24L119.13 6.24L119.13 6.24Q119.64 6.46 120.02 6.75L120.02 6.75L120.02 6.75Q120.39 7.03 120.62 7.40L120.62 7.40L120.62 7.40Q120.84 7.77 120.84 8.26L120.84 8.26L120.84 8.26Q120.84 8.78 120.64 9.18L120.64 9.18L120.64 9.18Q120.44 9.57 120.10 9.85L120.10 9.85L120.10 9.85Q119.77 10.14 119.31 10.33L119.31 10.33L119.31 10.33Q118.86 10.51 118.34 10.62L118.34 10.62L118.34 10.62Q117.82 10.73 117.27 10.78L117.27 10.78L117.27 10.78Q116.72 10.82 116.19 10.82L116.19 10.82L116.19 10.82Q114.97 10.82 113.97 10.64L113.97 10.64L113.97 10.64Q112.98 10.47 112.08 10.16L112.08 10.16L112.08 9.11L112.08 9.11Q113.00 9.67 114.04 9.87L114.04 9.87L114.04 9.87Q115.08 10.08 116.22 10.08L116.22 10.08L116.22 10.08Q117.02 10.08 117.71 9.98L117.71 9.98L117.71 9.98Q118.39 9.88 118.89 9.68L118.89 9.68L118.89 9.68Q119.39 9.47 119.67 9.13L119.67 9.13L119.67 9.13Q119.94 8.80 119.94 8.31L119.94 8.31L119.94 8.31Q119.94 7.92 119.72 7.63L119.72 7.63L119.72 7.63Q119.50 7.33 119.12 7.11L119.12 7.11L119.12 7.11Q118.74 6.89 118.23 6.72L118.23 6.72L118.23 6.72Q117.72 6.55 117.15 6.40L117.15 6.40L117.15 6.40Q116.59 6.25 115.98 6.11L115.98 6.11L115.98 6.11Q115.38 5.97 114.81 5.81L114.81 5.81L114.81 5.81Q114.24 5.65 113.73 5.44L113.73 5.44L113.73 5.44Q113.22 5.24 112.84 4.96L112.84 4.96L112.84 4.96Q112.46 4.68 112.24 4.32L112.24 4.32L112.24 4.32Q112.02 3.96 112.02 3.48L112.02 3.48L112.02 3.48Q112.02 3.01 112.20 2.64L112.20 2.64L112.20 2.64Q112.38 2.28 112.69 2.01L112.69 2.01L112.69 2.01Q113.00 1.74 113.42 1.56L113.42 1.56L113.42 1.56Q113.83 1.38 114.31 1.27L114.31 1.27L114.31 1.27Q114.78 1.17 115.29 1.12L115.29 1.12L115.29 1.12Q115.81 1.07 116.31 1.07L116.31 1.07L116.31 1.07Q116.85 1.07 117.34 1.12L117.34 1.12L117.34 1.12Q117.83 1.17 118.29 1.25L118.29 1.25L118.29 1.25Q118.74 1.33 119.17 1.43L119.17 1.43L119.17 1.43Q119.61 1.53 120.05 1.65L120.05 1.65Z"></path></g><!----><g data-v-423bf9ae="" id="68d29fc3-722a-4cbc-aa97-182f94d0c7c8" transform="matrix(2.8125,0,0,2.8125,0,0)" stroke="none" fill="#CB594D"><path d="M32 0H0v32h32V0zm-8.677 20.802l-2.52 2.52L16 28.125l-2.52-2.52 4.802-4.802L16 18.52l-4.802 4.802-2.52-2.52L13.48 16l-2.282-2.282-4.803 4.802L3.875 16l4.802-4.802 2.52-2.52L16 3.875l2.52 2.52-4.802 4.802L16 13.48l4.802-4.802 2.52 2.52L18.52 16l2.282 2.282 4.802-4.802 2.52 2.52-4.801 4.802z"></path></g><!----></svg>